<?xml version="1.0" encoding="UTF-8" standalone="no"?>
<svg
   xmlns:dc="http://purl.org/dc/elements/1.1/"
   xmlns:cc="http://creativecommons.org/ns#"
   xmlns:rdf="http://www.w3.org/1999/02/22-rdf-syntax-ns#"
   xmlns:svg="http://www.w3.org/2000/svg"
   xmlns="http://www.w3.org/2000/svg"
   xmlns:sodipodi="http://sodipodi.sourceforge.net/DTD/sodipodi-0.dtd"
   xmlns:inkscape="http://www.inkscape.org/namespaces/inkscape"
   width="51.647549mm"
   height="51.647549mm"
   viewBox="0 0 51.647549 51.647548"
   version="1.1"
   id="svg84"
   inkscape:version="1.0.2 (e86c870879, 2021-01-15, custom)"
   sodipodi:docname="rhasspy.svg">
  <defs
     id="defs78" />
  <sodipodi:namedview
     id="base"
     pagecolor="#ffffff"
     bordercolor="#666666"
     borderopacity="1.0"
     inkscape:pageopacity="0.0"
     inkscape:pageshadow="2"
     inkscape:zoom="5.6"
     inkscape:cx="128.54351"
     inkscape:cy="122.79725"
     inkscape:document-units="mm"
     inkscape:current-layer="g113"
     inkscape:document-rotation="0"
     showgrid="false"
     fit-margin-top="0"
     fit-margin-left="0"
     fit-margin-right="0"
     fit-margin-bottom="0"
     inkscape:window-width="2560"
     inkscape:window-height="1361"
     inkscape:window-x="2391"
     inkscape:window-y="-9"
     inkscape:window-maximized="1"
     lock-margins="false" />
  <metadata
     id="metadata81">
    <rdf:RDF>
      <cc:Work
         rdf:about="">
        <dc:format>image/svg+xml</dc:format>
        <dc:type
           rdf:resource="http://purl.org/dc/dcmitype/StillImage" />
        <dc:title></dc:title>
      </cc:Work>
    </rdf:RDF>
  </metadata>
  <g
     inkscape:label="Ebene 1"
     inkscape:groupmode="layer"
     id="layer1"
     transform="translate(-67.536344,-121.20998)">
    <g
       id="g113">
      <g
         id="g125">
        <rect
           style="fill:#ffffff;stroke-width:0.0400081;stop-color:#000000"
           id="rect104"
           width="14.786927"
           height="23.103794"
           x="76.162201"
           y="127.66145"
           ry="0.459777" />
        <path
           d="m 80.236342,125.62461 c -2.681111,0.67028 -4.480277,2.25778 -6.455833,5.75028 -0.635,1.09361 -2.010833,2.92806 -3.069166,4.1275 -2.822223,3.13972 -3.033889,3.70417 -3.104445,8.04333 l -0.07055,3.70417 2.928055,1.05833 2.892778,1.05834 v 1.72861 1.72861 h 2.257778 2.257777 l 0.211667,1.905 0.246944,1.905 2.751667,0.74083 c 1.481667,0.42333 2.892778,0.74083 3.104444,0.74083 0.211667,0 1.869723,1.19945 3.704167,2.68112 1.799167,1.48166 4.374444,3.24555 5.715,3.91583 2.187222,1.09361 8.643065,3.98639 8.925285,3.98639 0.56444,0 -0.77611,-1.79917 -6.420563,-8.64306 -3.598333,-4.33916 -6.526389,-8.04333 -6.526389,-8.18444 0,-0.17639 3.880556,-2.01084 8.607778,-4.05695 l 8.643064,-3.73944 2.8575,1.94028 c 2.75166,1.83444 2.8575,1.94027 2.29305,2.57527 -0.91722,1.02306 -0.28222,1.62278 0.70556,0.70556 l 0.81139,-0.77611 2.75166,1.76389 c 1.51695,0.98778 2.82222,1.72861 2.92806,1.65805 0.10583,-0.14111 -9.31333,-10.19527 -11.35945,-12.10027 -0.84666,-0.81139 -0.91722,-0.81139 -1.83444,-0.21167 -0.81139,0.52917 -0.98778,0.52917 -1.27,0.10583 -0.17639,-0.28222 -0.3175,-0.70555 -0.3175,-0.9525 0,-0.28222 -0.21167,-0.42333 -0.42333,-0.3175 -0.24695,0.0706 -0.45861,0.67028 -0.45861,1.30528 0,1.16417 -0.10584,1.23472 -5.997232,4.445 -3.280833,1.83444 -6.103055,3.31611 -6.244166,3.31611 -0.141112,0 0.458611,-1.48167 1.305277,-3.28083 2.046111,-4.40972 3.351389,-8.67833 3.598334,-11.88861 0.246944,-3.52778 -0.141112,-6.6675 -0.846667,-6.94972 -0.3175,-0.14112 -1.693333,0.0706 -3.104444,0.42333 -2.398889,0.59972 -2.716389,0.59972 -5.679723,0.0353 -3.316111,-0.59973 -4.621388,-0.635 -6.314722,-0.24695 z m 8.5725,7.33778 c 1.305278,3.38667 1.622778,5.08 1.658056,8.67833 0.03528,2.2225 -0.07056,3.59834 -0.282223,3.35139 -0.176388,-0.28222 -0.211666,0.0353 -0.07055,0.74083 0.176389,0.81139 0.141111,1.09362 -0.141111,0.9525 -0.246945,-0.17638 -0.3175,-0.0353 -0.176389,0.28223 0.105833,0.3175 0.03528,0.56444 -0.176389,0.56444 -0.211667,0 -0.282222,0.21167 -0.211667,0.42333 0.105834,0.24695 -0.105833,0.91723 -0.493888,1.44639 l -0.635,0.98778 -5.573889,-6.80861 c -3.069167,-3.73944 -5.715,-6.985 -5.891389,-7.23194 -0.176389,-0.21167 0.917222,0 2.434167,0.45861 1.516944,0.49389 3.457222,0.88194 4.303888,0.91722 1.305278,0.0353 1.693334,-0.14111 2.504723,-1.02306 0.529166,-0.59972 1.164166,-1.905 1.446388,-2.89277 0.246945,-0.98778 0.564445,-1.79917 0.705556,-1.79917 0.105833,0 0.388056,0.42333 0.599722,0.9525 z m -3.139722,1.02306 c -1.234722,1.30527 -1.552222,1.02305 -0.423333,-0.42334 0.529166,-0.70555 1.023055,-1.09361 1.093611,-0.84666 0.07055,0.21166 -0.211667,0.77611 -0.670278,1.27 z m -3.915833,1.19944 c 0.423333,0 0.458611,0.10583 0.176389,0.38806 -0.458611,0.45861 -2.434167,0.10583 -2.786945,-0.45862 -0.176389,-0.28222 0.105834,-0.3175 0.917223,-0.17638 0.634999,0.14111 1.411111,0.24694 1.693333,0.24694 z m 9.136944,7.3025 c -0.105833,0.35278 -0.176389,0.14111 -0.176389,-0.42333 0,-0.59973 0.07056,-0.84667 0.176389,-0.635 0.07056,0.24694 0.07056,0.74083 0,1.05833 z"
           id="path32"
           style="fill:#000000;stroke:none;stroke-width:0.0352778" />
        <path
           d="m 87.715231,137.90128 c -0.388055,0.35278 -0.282222,2.2225 0.105833,2.2225 0.211667,0 0.352778,-0.56445 0.352778,-1.23472 0,-1.27 -0.07055,-1.41111 -0.458611,-0.98778 z"
           id="path34"
           style="fill:#000000;stroke:none;stroke-width:0.0352778" />
        <path
           d="m 83.234953,139.34767 c 0,0.49389 1.375834,1.62278 1.658056,1.37583 0.105833,-0.14111 -0.07056,-0.56444 -0.423333,-0.9525 -0.670278,-0.74083 -1.234723,-0.91722 -1.234723,-0.42333 z"
           id="path36"
           style="fill:#000000;stroke:none;stroke-width:0.0352778" />
      </g>
    </g>
  </g>
</svg>
